<?xml version="1.0" encoding="UTF-8"?>
<svg id="Ebene_1" data-name="Ebene 1" xmlns="http://www.w3.org/2000/svg" viewBox="0 0 578.85 468.87">
  <path d="m230.22,330.87c0,8.07,6.54,14.61,14.61,14.61h18.2v-96.04h17.01v96.04h32.81v-96.04h17.01v96.04h18.2c8.07,0,14.61-6.54,14.61-14.61v-113.89h-132.46v113.89Z" style="fill: #111110;"/>
  <path d="m362.89,179.57c0-3.91-3.18-7.09-7.09-7.08h-35.28s0-10.67,0-10.67h0v-5.38c0-2.8-2.27-5.06-5.07-5.06h-36.29c-2.8.01-5.06,2.28-5.06,5.08v5.07h0v10.99s-37.02.01-37.02.01c-3.91,0-7.09,3.18-7.08,7.09v25.28s132.91-.04,132.91-.04v-25.28Zm-78.35-17.75h25.53s0,10.68,0,10.68h-25.53s0-10.68,0-10.68Z" style="fill: #111110;"/>
</svg>